<svg xmlns="http://www.w3.org/2000/svg" viewBox="0 0 1200 760" role="img" aria-labelledby="title desc">
  <title id="title">自然療癒感診療空間形象圖</title>
  <desc id="desc">以自然材質、植栽與柔和光線呈現精品診所感。</desc>
  <defs>
    <linearGradient id="wall" x1="0" x2="1" y1="0" y2="1">
      <stop offset="0%" stop-color="#f5f2ea"/>
      <stop offset="100%" stop-color="#d8e3db"/>
    </linearGradient>
    <linearGradient id="floor" x1="0" x2="1">
      <stop offset="0%" stop-color="#c6aa82"/>
      <stop offset="100%" stop-color="#a78962"/>
    </linearGradient>
  </defs>
  <rect width="1200" height="760" fill="url(#wall)"/>
  <rect y="560" width="1200" height="200" fill="url(#floor)"/>
  <rect x="95" y="110" width="360" height="300" rx="8" fill="#f9faf7" stroke="#c8d3cd" stroke-width="4"/>
  <rect x="145" y="155" width="260" height="36" rx="18" fill="#9baa95"/>
  <rect x="145" y="225" width="210" height="18" rx="9" fill="#c7d0c6"/>
  <rect x="145" y="270" width="245" height="18" rx="9" fill="#c7d0c6"/>
  <rect x="145" y="315" width="190" height="18" rx="9" fill="#c7d0c6"/>
  <rect x="610" y="150" width="430" height="280" rx="10" fill="#eaf0ea" stroke="#c2cec6" stroke-width="4"/>
  <path d="M660 385c58-98 113-143 164-135 49 8 81 57 128 135H660z" fill="#91a783"/>
  <circle cx="785" cy="238" r="42" fill="#d8b36d"/>
  <rect x="485" y="458" width="230" height="88" rx="8" fill="#7f735f"/>
  <rect x="515" y="402" width="170" height="75" rx="10" fill="#d5d8cd"/>
  <rect x="740" y="445" width="250" height="110" rx="8" fill="#f8f9f5"/>
  <rect x="790" y="385" width="150" height="75" rx="37" fill="#e5e7de"/>
  <path d="M1055 564c-12-102 8-182 61-242 48 78 58 159 31 242h-92z" fill="#809b75"/>
  <path d="M1015 565c4-76 36-130 95-162 20 70 3 124-51 162h-44z" fill="#9aaa7d"/>
  <rect x="1040" y="548" width="120" height="36" rx="8" fill="#6e6957"/>
  <text x="600" y="675" text-anchor="middle" font-family="'Noto Sans TC', Arial, sans-serif" font-size="34" font-weight="700" fill="#4d5b55">澤予堂竹北中醫診所</text>
</svg>
