<svg xmlns="http://www.w3.org/2000/svg" viewBox="0 0 512 512" role="img" aria-label="廖志彰中醫師標誌">
  <defs>
    <filter id="softShadow" x="-20%" y="-20%" width="140%" height="140%">
      <feDropShadow dx="7" dy="8" stdDeviation="2" flood-color="#526f63" flood-opacity="0.22"/>
    </filter>
  </defs>
  <circle cx="256" cy="256" r="205" fill="#f5efde" filter="url(#softShadow)"/>
  <g opacity="0.35" fill="none" stroke="#e8dfcc" stroke-width="2">
    <rect x="168" y="138" width="18" height="18" rx="5"/>
    <rect x="216" y="138" width="18" height="18" rx="5"/>
    <rect x="264" y="138" width="18" height="18" rx="5"/>
    <rect x="312" y="138" width="18" height="18" rx="5"/>
    <rect x="144" y="186" width="18" height="18" rx="5"/>
    <rect x="192" y="186" width="18" height="18" rx="5"/>
    <rect x="240" y="186" width="18" height="18" rx="5"/>
    <rect x="288" y="186" width="18" height="18" rx="5"/>
    <rect x="336" y="186" width="18" height="18" rx="5"/>
    <rect x="168" y="234" width="18" height="18" rx="5"/>
    <rect x="216" y="234" width="18" height="18" rx="5"/>
    <rect x="264" y="234" width="18" height="18" rx="5"/>
    <rect x="312" y="234" width="18" height="18" rx="5"/>
    <rect x="360" y="234" width="18" height="18" rx="5"/>
    <rect x="144" y="282" width="18" height="18" rx="5"/>
    <rect x="192" y="282" width="18" height="18" rx="5"/>
    <rect x="240" y="282" width="18" height="18" rx="5"/>
    <rect x="288" y="282" width="18" height="18" rx="5"/>
    <rect x="336" y="282" width="18" height="18" rx="5"/>
    <rect x="168" y="330" width="18" height="18" rx="5"/>
    <rect x="216" y="330" width="18" height="18" rx="5"/>
    <rect x="264" y="330" width="18" height="18" rx="5"/>
    <rect x="312" y="330" width="18" height="18" rx="5"/>
  </g>
  <g fill="#7fae9a">
    <rect x="198" y="149" width="38" height="206" rx="19"/>
    <rect x="198" y="317" width="144" height="38" rx="19"/>
    <rect x="217" y="317" width="19" height="19"/>
  </g>
</svg>
